<?xml version="1.0" encoding="UTF-8" standalone="no"?>
<!-- Created with Inkscape (http://www.inkscape.org/) -->

<svg
   xmlns:dc="http://purl.org/dc/elements/1.1/"
   xmlns:cc="http://creativecommons.org/ns#"
   xmlns:rdf="http://www.w3.org/1999/02/22-rdf-syntax-ns#"
   xmlns:svg="http://www.w3.org/2000/svg"
   xmlns="http://www.w3.org/2000/svg"
   xmlns:sodipodi="http://sodipodi.sourceforge.net/DTD/sodipodi-0.dtd"
   xmlns:inkscape="http://www.inkscape.org/namespaces/inkscape"
   width="300mm"
   height="200mm"
   viewBox="0 0 300 200"
   version="1.1"
   id="svg8"
   sodipodi:docname="blog_icon.svg"
   inkscape:version="0.92.2 2405546, 2018-03-11">
  <defs
     id="defs2" />
  <sodipodi:namedview
     id="base"
     pagecolor="#ffffff"
     bordercolor="#666666"
     borderopacity="1"
     inkscape:pageopacity="0"
     inkscape:pageshadow="2"
     inkscape:zoom="0.98994949"
     inkscape:cx="508.56733"
     inkscape:cy="451.87485"
     inkscape:document-units="mm"
     inkscape:current-layer="layer1"
     showgrid="false"
     units="mm"
     inkscape:window-width="1920"
     inkscape:window-height="1001"
     inkscape:window-x="0"
     inkscape:window-y="0"
     inkscape:window-maximized="1" />
  <metadata
     id="metadata5">
    <rdf:RDF>
      <cc:Work
         rdf:about="">
        <dc:format>image/svg+xml</dc:format>
        <dc:type
           rdf:resource="http://purl.org/dc/dcmitype/StillImage" />
        <dc:title></dc:title>
      </cc:Work>
    </rdf:RDF>
  </metadata>
  <g
     inkscape:label="Layer 1"
     inkscape:groupmode="layer"
     id="layer1"
     transform="translate(0,-97.000002)">
    <path
       style="fill:none;stroke:#000000;stroke-width:0.24870102px;stroke-linecap:butt;stroke-linejoin:miter;stroke-opacity:1"
       d="m 82.800158,165.77066 c 4.669244,1.91072 8.552988,5.1238 15.272144,7.28309 3.529828,1.60361 16.628258,-10.20963 18.930668,-8.87329 1.78838,0.92202 14.9051,10.97705 23.64248,11.04387 6.25786,1.00226 18.25564,-11.0332 23.80505,-11.16684 20.87545,15.61491 22.8951,6.10605 33.44169,8.81676 3.96631,1.22998 5.33121,8.93879 0.97347,8.53167 -12.37229,-1.99613 -21.22067,-0.25089 -32.49735,-8.30434 -4.44953,-1.46573 -20.70107,11.81487 -24.24325,10.14444 -7.7928,0.33409 -22.46225,-9.96611 -24.5584,-10.05864 -2.36146,-1.60361 -14.99204,11.69108 -19.419761,10.02064 -8.130875,-3.87868 -9.05874,-8.01929 -16.507211,-11.74838 -2.079751,-2.45156 -2.604562,-7.18356 1.16047,-5.68898 z"
       id="path18"
       inkscape:connector-curvature="0"
       sodipodi:nodetypes="ccccccccccccc" />
    <path
       style="fill:none;stroke:#000000;stroke-width:0.25347647px;stroke-linecap:butt;stroke-linejoin:miter;stroke-opacity:1"
       d="m 79.37754,240.56082 c 4.04216,-4.03664 8.35159,-9.30899 12.39375,-12.62653 4.734245,-4.19106 19.93659,9.54766 22.99159,9.89061 3.38236,1.6064 15.51999,-8.0885 20.46343,-8.0885 4.41711,0.82756 16.48349,11.56163 21.8019,11.22532 4.1631,-0.59138 8.49917,-8.45601 16.98389,-12.38889 4.50981,-2.45685 20.03975,15.36013 24.46283,13.37575 2.86199,-1.5119 9.77378,-12.92227 14.37032,-11.41037 7.97889,6.99256 10.18703,8.91324 13.22248,7.9683 3.11653,-1.25849 3.77294,5.53457 -0.2453,5.26154 -3.92483,0.80181 -9.2173,-1.58462 -11.03857,-3.4745 -5.29036,-3.30729 -12.64958,8.11536 -16.98594,9.1548 -4.33635,2.45684 -19.89399,-14.30334 -23.10289,-12.03549 -5.37708,3.30729 -11.66113,10.19818 -18.51257,10.76514 -4.16289,0 -17.71196,-10.3413 -20.92086,-11.09725 -2.94646,-0.76637 -18.96938,9.58697 -22.35174,8.45304 -3.03635,-0.10202 -17.508527,-12.83575 -20.657615,-9.09273 -4.139316,2.91237 -8.041794,10.83155 -10.64685,10.40059 -3.719887,-0.0841 -5.242652,-2.10248 -2.227855,-6.28083 z"
       id="path18-6"
       inkscape:connector-curvature="0"
       sodipodi:nodetypes="ccccccccccccccccccc" />
    <path
       style="fill:none;stroke:#000000;stroke-width:0.24895877px;stroke-linecap:butt;stroke-linejoin:miter;stroke-opacity:1"
       d="m 81.441719,208.83174 c 7.441404,-5.13892 6.605769,-8.05264 8.853519,-10.70978 3.043469,-1.89491 12.163162,3.9134 17.684642,5.51702 7.17556,0.96378 17.34254,-6.00635 25.38995,-7.2582 5.0198,0.0945 19.42632,12.83843 24.36245,12.08247 4.51781,-0.0945 16.66799,-13.41767 23.94668,-11.05532 l 17.38182,10.42907 c 4.68514,1.41741 12.14037,-6.92607 12.14037,-6.92607 4.33303,-4.34865 3.1763,6.62306 0.4449,9.30719 0,0 -9.21689,6.08791 -13.98568,4.29252 l -15.10303,-7.68343 c -9.70493,-3.30729 -16.4775,6.51487 -24.4458,8.15173 -11.70517,0.19455 -17.58428,-11.91437 -25.25714,-11.66259 -6.01537,0 -22.52411,10.63149 -25.26798,10.34801 -4.65861,-0.36979 -11.231783,-8.53635 -13.594596,-6.16897 -3.85777,6.3792 -9.951106,5.79985 -12.076835,5.87993 -1.331178,-0.37853 -3.604851,0.15538 -0.47327,-4.54358 z"
       id="path18-7"
       inkscape:connector-curvature="0"
       sodipodi:nodetypes="ccccccccccccccccc" />
    <path
       style="fill:none;stroke:#000000;stroke-width:0.23611411px;stroke-linecap:butt;stroke-linejoin:miter;stroke-opacity:1"
       d="m 81.267443,140.68459 c 8.465526,-11.45276 9.178186,-14.52051 24.621987,-5.41221 2.82023,3.07359 17.79514,-8.88671 19.8704,-7.55037 4.81917,0.52112 12.07182,11.62622 19.94717,11.69304 5.64047,1.00226 15.1442,-10.75759 20.14612,-10.89123 2.07527,0.13364 12.5828,9.82215 16.78654,10.28987 2.34132,0.20046 9.15001,-5.67947 12.87485,-7.68399 3.04816,-2.28411 9.6415,9.83082 11.94675,9.30858 1.27338,-0.53655 7.15666,-5.90089 9.17715,-6.43543 1.76577,-0.10637 2.86354,1.34256 -0.53213,5.34539 -1.43672,1.9377 -8.19461,7.08264 -8.62031,7.08264 -2.87343,1.20271 -8.76314,-8.31974 -11.37052,-6.44886 0,0 -12.14912,7.05022 -13.85191,7.05022 -1.70277,1.13589 -15.21375,-7.684 -15.21375,-7.684 -4.01055,-1.46573 -17.45832,10.49033 -20.65103,8.8199 -7.02396,0.33409 -19.73462,-9.1951 -21.62396,-9.28763 -2.12848,-1.60361 -15.32036,11.80178 -18.6727,8.92863 -14.352657,-7.35319 -13.999481,-15.4799 -23.054409,-0.7674 -2.343991,1.69932 -4.319433,-3.15932 -1.780248,-6.35715 z"
       id="path18-5"
       inkscape:connector-curvature="0"
       sodipodi:nodetypes="ccccccccccccccccccc" />
    <path
       style="opacity:1;fill:#4c4c4c;fill-opacity:1;stroke-width:1.01015258"
       d="m 548.57803,192.28838 c -13.34633,-1.80726 -29.2434,-8.75121 -58.7564,-25.66519 -8.41945,-4.8252 -16.89705,-9.03096 -18.83912,-9.34611 -4.4578,-0.7234 -8.92352,1.72835 -30.57158,16.78426 -18.01534,12.52942 -28.60087,18.24645 -33.78472,18.24645 -4.60438,0 -17.40556,-7.32616 -35.74267,-20.45564 -17.07885,-12.22856 -23.3393,-15.38895 -28.5483,-14.41174 -7.32257,1.37372 -14.72729,8.7812 -26.01886,26.02854 -2.86168,4.3711 -4.39584,5.80838 -6.19986,5.80838 -5.22949,0 -8.21141,-10.91255 -5.04642,-18.46773 2.24885,-5.36824 22.08607,-31.12771 28.59539,-37.13231 6.60413,-6.09206 11.27072,-8.04764 19.1525,-8.02606 7.01998,0.0192 19.61812,4.70875 34.00143,12.65667 18.92143,10.45558 16.94778,9.73379 23.08887,8.44391 6.97455,-1.46494 16.78553,-5.98882 33.72761,-15.55194 21.34127,-12.04628 27.88865,-14.91003 32.22772,-14.09601 5.04611,0.94665 12.93794,6.27519 28.36005,19.14861 22.75055,18.99075 33.72765,24.7005 47.47717,24.69531 11.61694,-0.004 17.64837,-3.22057 46.64988,-24.87548 14.34798,-10.71338 22.66515,-15.48534 26.98981,-15.48534 3.85414,0 7.41685,2.05478 21.7962,12.57086 25.00747,18.28876 37.73228,25.84046 43.46009,25.79195 4.28353,-0.0363 10.17593,-3.33334 30.47873,-17.05422 10.76492,-7.27505 20.27916,-13.22737 21.14278,-13.22737 3.57704,0 11.74099,7.0688 22.76922,19.71488 6.44249,7.38761 13.22558,14.24625 15.0735,15.24142 4.17937,2.25075 4.2511,2.21514 19.55681,-9.70934 14.12086,-11.00136 19.54428,-14.08015 22.04329,-12.51359 4.90172,3.07274 0.505,12.12358 -11.47779,23.62753 -9.76288,9.37275 -25.35446,21.19777 -27.96536,21.20957 -3.20221,0.0145 -7.7406,-2.97313 -16.70605,-10.99758 -11.99226,-10.73355 -17.07502,-14.24801 -20.6061,-14.24801 -1.82564,0 -8.4689,3.072 -17.27357,7.9877 -7.86886,4.39324 -19.53457,10.56565 -25.92378,13.71646 -9.845,4.85502 -12.25611,5.66027 -15.80876,5.27976 -5.64963,-0.6051 -17.66197,-6.56167 -37.93344,-18.81007 -13.56905,-8.19868 -17.62261,-10.19174 -20.70813,-10.18182 -5.41657,0.0174 -16.40271,5.13472 -35.29672,16.44111 -28.37295,16.97869 -32.02899,18.39971 -43.38342,16.86218 z"
       id="path4659"
       inkscape:connector-curvature="0"
       transform="matrix(0.26458333,0,0,0.26458333,0,97.000002)" />
    <path
       style="opacity:1;fill:#4c4c4c;fill-opacity:1;stroke-width:1.01015258"
       d="m 367.18269,322.79619 c -9.0586,-4.7651 -16.71557,-10.36283 -28.62403,-20.92598 -6.11143,-5.42101 -14.52095,-12.04828 -18.68783,-14.72727 -4.16688,-2.67898 -8.64682,-5.62374 -9.95544,-6.54391 -3.16991,-2.22897 -6.15738,-9.03759 -6.18481,-14.09554 -0.0439,-8.09935 3.90457,-8.46604 17.21623,-1.59883 45.31831,23.37878 49.73556,25.18983 56.79989,23.2876 6.52804,-1.75782 16.35413,-7.06434 34.62865,-18.70101 17.71046,-11.27748 23.76756,-14.49525 27.35456,-14.53182 1.19697,-0.0122 9.3792,4.63342 18.18274,10.3236 18.88081,12.20362 40.68354,23.46725 53.38209,27.57799 7.87824,2.55032 10.65643,2.94599 20.82007,2.96522 l 11.7287,0.0222 11.50481,-5.77323 c 6.32765,-3.17528 18.55063,-10.35272 27.16218,-15.94988 18.003,-11.70122 32.23829,-19.18806 36.48363,-19.18806 1.92382,0 5.29958,1.71305 9.74631,4.94583 24.03116,17.47068 46.99095,27.8662 64.23348,29.08303 5.53305,0.39047 12.51132,-0.009 20.7905,-1.18951 8.25688,-1.17754 15.97757,-1.6209 22.88041,-1.31389 9.16648,0.40767 10.90829,0.78755 14.49539,3.16139 5.25485,3.47749 9.26001,11.13785 9.31169,17.80976 0.0687,8.86856 -3.44152,11.80834 -12.13176,10.16027 -2.70059,-0.51215 -15.08848,-1.883 -27.52867,-3.04633 -46.41221,-4.34018 -61.83739,-8.70915 -86.53432,-24.50963 -5.72484,-3.66261 -6.77743,-3.99396 -10.89463,-3.42964 -7.11643,0.97542 -17.63768,5.81996 -38.90407,17.91353 -10.79409,6.13829 -23.94404,13.28068 -29.22208,15.87198 -9.39887,4.61445 -9.7762,4.70661 -18.32676,4.4763 -15.93997,-0.42936 -29.95043,-5.65403 -64.93493,-24.21501 -12.18109,-6.46267 -23.99988,-12.40997 -26.26396,-13.21623 -3.85692,-1.37349 -4.42822,-1.31844 -9.05931,0.87298 -2.71853,1.2864 -13.4009,8.38379 -23.73859,15.77199 -19.10577,13.65462 -30.09321,20.00628 -36.49285,21.09593 -2.76193,0.47027 -4.82248,-0.0615 -9.23729,-2.38381 z"
       id="path4661"
       inkscape:connector-curvature="0"
       transform="matrix(0.26458333,0,0,0.26458333,0,97.000002)" />
    <path
       style="opacity:1;fill:#4c4c4c;fill-opacity:1;stroke-width:1.01015258"
       d="m 582.00542,443.28586 c -9.63068,-2.40051 -23.26203,-9.80464 -36.36549,-19.75261 -24.71748,-18.76517 -31.75044,-22.38034 -43.40788,-22.31309 -9.84899,0.0568 -21.87106,4.6809 -57.33099,22.05136 -17.68136,8.66143 -33.81776,15.93665 -35.99518,16.2287 -6.00045,0.80483 -10.48246,-1.19555 -25.4491,-11.35825 -16.90987,-11.4822 -19.02751,-12.59047 -24.05745,-12.59047 -3.45872,0 -4.29573,0.46494 -6.10386,3.39056 -3.26939,5.28997 -11.74131,12.66842 -17.65388,15.37529 -7.0418,3.22384 -15.66419,4.75671 -24.08598,4.28196 -8.76124,-0.49388 -9.68292,-1.4018 -7.42497,-7.31414 1.97333,-5.1671 4.55899,-8.04105 13.6372,-15.15773 7.62141,-5.97464 12.83409,-12.66362 19.12742,-24.54455 l 4.69385,-8.86135 5.70019,-0.29972 c 7.04403,-0.37038 12.52689,1.40547 36.72622,11.89531 23.59589,10.22827 24.58329,10.51852 33.2813,9.78327 10.06522,-0.85082 21.73434,-4.45 48.30413,-14.89872 28.20555,-11.092 37.29664,-13.50059 43.6922,-11.57581 6.05067,1.82098 15.60704,7.1738 38.36708,21.49058 23.83165,14.99085 30.59487,18.7343 38.79265,21.47178 11.2748,3.76499 15.39122,2.11949 44.03986,-17.60452 25.65644,-17.66393 42.55819,-25.24368 52.2058,-23.41221 1.84393,0.35005 18.52441,9.72517 37.06774,20.83361 21.54387,12.90592 34.6969,20.19715 36.43467,20.19715 9.14798,0 22.73053,-7.89274 37.07695,-21.54523 9.0564,-8.61834 12.61919,-10.45613 13.88346,-7.1615 1.18396,3.08536 0.59658,15.2645 -0.99807,20.69471 -0.88618,3.01765 -2.75601,7.60783 -4.15518,10.20039 -2.31905,4.29704 -3.58309,5.24854 -14.29867,10.76324 -13.85872,7.13229 -23.60872,10.3471 -31.95778,10.53725 -5.91099,0.13462 -6.83768,-0.25171 -37.46224,-15.61785 -34.99556,-17.55932 -37.73789,-18.41094 -51.54394,-16.00672 -9.87245,1.71921 -16.92912,4.91605 -35.79538,16.21615 -9.26568,5.54975 -19.52304,11.29094 -22.79415,12.7582 -7.3563,3.29967 -17.45572,4.0122 -26.15053,1.84496 z"
       id="path4663"
       inkscape:connector-curvature="0"
       transform="matrix(0.26458333,0,0,0.26458333,0,97.000002)" />
    <path
       style="opacity:1;fill:#4c4c4c;fill-opacity:1;stroke-width:1.01015258"
       d="m 736.46877,574.34155 c -7.25893,-3.00742 -16.65306,-9.0212 -33.75012,-21.60564 -27.10207,-19.9487 -35.77333,-24.91901 -41.13152,-23.57632 -1.23236,0.30882 -9.64188,6.09449 -18.68783,12.85705 -28.11992,21.02188 -38.40639,26.71002 -50.29061,27.80936 -8.64348,0.79956 -17.87331,-3.68066 -53.5416,-25.98941 -19.70153,-12.32233 -25.24841,-15.148 -29.73601,-15.148 -4.99486,0 -12.83768,3.16941 -39.61843,16.01047 -26.18956,12.55759 -37.41275,16.78544 -42.18288,15.89055 -4.12035,-0.77298 -10.60263,-4.28547 -24.22597,-13.12708 -26.70516,-17.33179 -39.80367,-23.82471 -48.06285,-23.82471 -5.5212,0 -12.21738,5.65028 -23.99817,20.2498 -5.1349,6.36351 -11.57871,13.72921 -14.31957,16.36823 -4.48041,4.31394 -5.45484,4.79823 -9.65435,4.79823 -11.22009,0 -15.08031,-6.43518 -9.91769,-16.53327 2.02761,-3.96601 38.26898,-42.74192 46.37732,-49.62071 6.31699,-5.35909 6.78121,-5.56685 12.43832,-5.56685 10.31072,0 21.99251,5.51706 49.06191,23.1709 24.56327,16.01942 24.93311,16.22405 30.48748,16.86878 6.625,0.769 14.26642,-2.23088 37.75254,-14.82096 19.62903,-10.52242 28.4004,-14.50493 34.29646,-15.5718 4.91664,-0.88966 13.03793,3.21826 37.5475,18.99233 23.68485,15.24329 37.08619,22.03044 44.75517,22.66641 7.43499,0.61657 12.68619,-2.43823 26.97241,-15.69073 20.47826,-18.99651 35.77868,-29.97022 43.54378,-31.23032 6.73798,-1.09342 16.12355,4.41911 44.15489,25.93399 27.22665,20.89725 34.38851,25.17746 42.19533,25.2176 4.89842,0.0252 4.71361,0.18767 27.38522,-24.07781 13.11412,-14.03607 20.23965,-19.31003 26.11244,-19.32708 2.69657,-0.008 5.41863,1.84552 15.65736,10.66049 20.6136,17.74716 28.15318,21.85534 36.637,19.96276 5.50481,-1.22801 7.34397,-0.67681 9.1051,2.72885 1.91418,3.70162 1.89784,6.37843 -0.0621,10.16854 -2.0438,3.9523 -4.97937,4.9572 -14.48124,4.9572 -11.60246,0 -25.10347,-4.74643 -33.42987,-11.75263 -2.5512,-2.1467 -4.63424,-2.88003 -9.09785,-3.2029 -9.47448,-0.68532 -15.93719,3.13796 -37.89698,22.41955 -11.38733,9.99853 -19.12609,14.80263 -23.68439,14.7029 -1.41876,-0.0311 -4.43835,-0.82654 -6.71018,-1.76777 z"
       id="path4665"
       inkscape:connector-curvature="0"
       transform="matrix(0.26458333,0,0,0.26458333,0,97.000002)" />
  </g>
</svg>
