<?xml version="1.0" encoding="UTF-8" standalone="no"?>
<!-- Created with Inkscape (http://www.inkscape.org/) -->

<svg
   xmlns:dc="http://purl.org/dc/elements/1.1/"
   xmlns:cc="http://creativecommons.org/ns#"
   xmlns:rdf="http://www.w3.org/1999/02/22-rdf-syntax-ns#"
   xmlns:svg="http://www.w3.org/2000/svg"
   xmlns="http://www.w3.org/2000/svg"
   xmlns:sodipodi="http://sodipodi.sourceforge.net/DTD/sodipodi-0.dtd"
   xmlns:inkscape="http://www.inkscape.org/namespaces/inkscape"
   width="300mm"
   height="200mm"
   viewBox="0 0 300 200"
   version="1.1"
   id="svg5478"
   inkscape:version="0.92.2 2405546, 2018-03-11"
   sodipodi:docname="blog_icon2.svg">
  <defs
     id="defs5472" />
  <sodipodi:namedview
     id="base"
     pagecolor="#ffffff"
     bordercolor="#666666"
     borderopacity="1.0"
     inkscape:pageopacity="0.0"
     inkscape:pageshadow="2"
     inkscape:zoom="0.7"
     inkscape:cx="246.00105"
     inkscape:cy="381.74536"
     inkscape:document-units="mm"
     inkscape:current-layer="layer1"
     showgrid="false"
     inkscape:window-width="1920"
     inkscape:window-height="1001"
     inkscape:window-x="0"
     inkscape:window-y="0"
     inkscape:window-maximized="1" />
  <metadata
     id="metadata5475">
    <rdf:RDF>
      <cc:Work
         rdf:about="">
        <dc:format>image/svg+xml</dc:format>
        <dc:type
           rdf:resource="http://purl.org/dc/dcmitype/StillImage" />
        <dc:title></dc:title>
      </cc:Work>
    </rdf:RDF>
  </metadata>
  <g
     inkscape:label="Layer 1"
     inkscape:groupmode="layer"
     id="layer1"
     transform="translate(0,-97)">
    <path
       style="fill:none;stroke:#4c4c4c;stroke-width:6;stroke-linecap:round;stroke-linejoin:miter;stroke-miterlimit:4;stroke-dasharray:none;stroke-opacity:1"
       d="m 97.950346,169.96408 c 5.545834,0.20045 12.764624,-9.40748 14.165274,-10.15624 7.21628,-3.20724 13.89802,8.28536 13.89802,8.28536 2.73951,5.27857 17.10525,-7.75082 17.10525,-7.75082 4.54358,-3.4745 16.30344,7.48355 16.30344,7.48355 4.94449,4.2095 13.89801,-7.48355 13.89801,-7.48355 5.74629,-4.6104 18.4416,8.01809 18.4416,8.01809 4.67722,4.34313 15.7689,-7.75082 15.7689,-7.75082"
       id="path5480"
       inkscape:connector-curvature="0"
       sodipodi:nodetypes="cccccccc" />
    <path
       style="fill:none;stroke:#4c4c4c;stroke-width:4;stroke-linecap:round;stroke-linejoin:miter;stroke-miterlimit:4;stroke-dasharray:none;stroke-opacity:1"
       d="m 118.26282,198.56192 c 0,0 6.94901,8.01809 12.56167,6.94901 2.27179,0.4009 13.0962,-7.75081 13.0962,-7.75081 6.94901,-3.34087 7.88445,9.75533 12.82894,7.21627 l 13.89802,-7.21627 c 4.40995,-2.13816 8.15172,6.68174 11.75986,5.07812"
       id="path5515"
       inkscape:connector-curvature="0"
       sodipodi:nodetypes="cccccc" />
    <path
       style="fill:none;stroke:#4c4c4c;stroke-width:6;stroke-linecap:round;stroke-linejoin:miter;stroke-miterlimit:4;stroke-dasharray:none;stroke-opacity:1"
       d="m 98.171261,189.88888 c 5.545839,0.20045 12.764629,-9.40749 14.165279,-10.15625 7.21628,-3.20724 13.89801,8.28537 13.89801,8.28537 2.73952,5.27857 17.10526,-7.75083 17.10526,-7.75083 4.54358,-3.4745 16.30344,7.48356 16.30344,7.48356 4.94449,4.2095 13.898,-7.48356 13.898,-7.48356 5.74629,-4.6104 18.4416,8.0181 18.4416,8.0181 4.67722,4.34313 15.7689,-7.75083 15.7689,-7.75083"
       id="path5480-2"
       inkscape:connector-curvature="0"
       sodipodi:nodetypes="cccccccc" />
    <path
       style="fill:none;stroke:#4c4c4c;stroke-width:6;stroke-linecap:round;stroke-linejoin:miter;stroke-miterlimit:4;stroke-dasharray:none;stroke-opacity:1"
       d="m 96.166735,239.06648 c 5.545845,0.20045 12.764635,-9.4075 14.165285,-10.15626 7.21628,-3.20724 13.89801,8.28538 13.89801,8.28538 2.73952,5.27857 17.10526,-7.75084 17.10526,-7.75084 4.54358,-3.4745 16.30344,7.48357 16.30344,7.48357 4.94449,4.2095 13.898,-7.48357 13.898,-7.48357 5.74629,-4.6104 18.4416,8.01811 18.4416,8.01811 4.67722,4.34313 15.76891,-7.75084 15.76891,-7.75084"
       id="path5480-2-0"
       inkscape:connector-curvature="0"
       sodipodi:nodetypes="cccccccc" />
    <path
       style="fill:none;stroke:#4c4c4c;stroke-width:6;stroke-linecap:round;stroke-linejoin:miter;stroke-miterlimit:4;stroke-dasharray:none;stroke-opacity:1"
       d="m 95.364927,260.31442 c 5.545853,0.20045 12.764633,-9.40751 14.165283,-10.15627 7.21628,-3.20724 13.89801,8.28539 13.89801,8.28539 2.73952,5.27857 17.10526,-7.75085 17.10526,-7.75085 4.54358,-3.4745 16.30344,7.48358 16.30344,7.48358 4.94449,4.2095 13.898,-7.48358 13.898,-7.48358 5.74629,-4.6104 18.4416,8.01812 18.4416,8.01812 4.67722,4.34313 15.76891,-7.75085 15.76891,-7.75085"
       id="path5480-2-0-2"
       inkscape:connector-curvature="0"
       sodipodi:nodetypes="cccccccc" />
    <path
       style="fill:none;stroke:#4c4c4c;stroke-width:4;stroke-linecap:round;stroke-linejoin:miter;stroke-miterlimit:4;stroke-dasharray:none;stroke-opacity:1"
       d="m 118.82048,211.88156 c 0,0 6.94901,8.01809 12.56167,6.94901 2.27179,0.4009 13.0962,-7.75081 13.0962,-7.75081 6.94901,-3.34087 7.88445,9.75533 12.82894,7.21627 l 13.89802,-7.21627 c 4.40995,-2.13816 8.15172,6.68174 11.75986,5.07812"
       id="path5515-3"
       inkscape:connector-curvature="0"
       sodipodi:nodetypes="cccccc" />
    <path
       style="fill:none;stroke:#4c4c4c;stroke-width:7;stroke-linecap:round;stroke-linejoin:miter;stroke-miterlimit:4;stroke-dasharray:none;stroke-opacity:1"
       d="m 100.89031,134.68451 c -0.13363,9.88897 0.4009,13.36347 6.81537,13.63074 5.07812,-0.93544 6.2887,-8.88867 12.97044,-13.03135 9.6217,-2.27179 7.87658,10.75956 12.82107,11.16046 5.61266,1.33635 9.88897,-11.49258 9.88897,-11.49258"
       id="path5592"
       inkscape:connector-curvature="0"
       sodipodi:nodetypes="ccccc" />
    <path
       style="fill:none;stroke:#4c4c4c;stroke-width:4;stroke-linecap:round;stroke-linejoin:miter;stroke-miterlimit:4;stroke-dasharray:none;stroke-opacity:1"
       d="m 157.28418,272.86285 c 0,0 2.87314,-2.40542 3.74177,-2.93996 3.14042,-1.06908 4.00904,3.0736 4.81085,4.00904 1.46998,2.47224 5.21176,-3.40769 7.48355,-5.07812 2.13816,-0.80181 5.61265,3.74177 5.61265,3.74177"
       id="path5594"
       inkscape:connector-curvature="0"
       sodipodi:nodetypes="ccccc" />
  </g>
</svg>
