<?xml version="1.0" encoding="UTF-8" standalone="no"?>
<!-- Created with Inkscape (http://www.inkscape.org/) -->

<svg
   xmlns:dc="http://purl.org/dc/elements/1.1/"
   xmlns:cc="http://creativecommons.org/ns#"
   xmlns:rdf="http://www.w3.org/1999/02/22-rdf-syntax-ns#"
   xmlns:svg="http://www.w3.org/2000/svg"
   xmlns="http://www.w3.org/2000/svg"
   xmlns:sodipodi="http://sodipodi.sourceforge.net/DTD/sodipodi-0.dtd"
   xmlns:inkscape="http://www.inkscape.org/namespaces/inkscape"
   width="300mm"
   height="200mm"
   viewBox="0 0 300 200"
   version="1.1"
   id="svg4701"
   sodipodi:docname="projects_icon.svg"
   inkscape:version="0.92.2 2405546, 2018-03-11">
  <defs
     id="defs4695" />
  <sodipodi:namedview
     id="base"
     pagecolor="#ffffff"
     bordercolor="#666666"
     borderopacity="1.0"
     inkscape:pageopacity="0.0"
     inkscape:pageshadow="2"
     inkscape:zoom="0.98994949"
     inkscape:cx="365.35174"
     inkscape:cy="396.47574"
     inkscape:document-units="mm"
     inkscape:current-layer="layer1"
     showgrid="false"
     inkscape:window-width="1920"
     inkscape:window-height="1001"
     inkscape:window-x="0"
     inkscape:window-y="0"
     inkscape:window-maximized="1" />
  <metadata
     id="metadata4698">
    <rdf:RDF>
      <cc:Work
         rdf:about="">
        <dc:format>image/svg+xml</dc:format>
        <dc:type
           rdf:resource="http://purl.org/dc/dcmitype/StillImage" />
        <dc:title></dc:title>
      </cc:Work>
    </rdf:RDF>
  </metadata>
  <g
     inkscape:label="Layer 1"
     inkscape:groupmode="layer"
     id="layer1"
     transform="translate(0,-97)">
    <path
       style="fill:none;stroke:#000000;stroke-width:0.26458332px;stroke-linecap:butt;stroke-linejoin:miter;stroke-opacity:1"
       d="m 147.03274,129.17857 c 8.81989,4.40995 3.0736,25.72137 0,27.59226 -4.40995,5.47903 -18.15792,-1.53877 -22.3006,1.13393 -2.6727,2.27179 -3.0736,5.61985 0,8.69345 5.21176,4.14268 17.4249,-4.38701 21.16667,-0.37797 5.47903,6.5481 4.11974,23.58322 0.37797,27.59226 -4.40995,4.14268 -30.4975,-1.93967 -34.77381,1.13393 -4.40995,3.4745 -3.85247,9.28891 -0.37797,12.09524 7.98614,5.85651 26.31289,-4.98641 33.2619,-1.51191 6.01356,2.6727 5.78822,24.3621 1.51191,27.97024 -5.87993,3.0736 -12.88918,-2.16108 -16.63095,0.37798 -2.13816,1.73725 -2.42836,3.72997 0.37797,6.80357 1.60362,2.13816 10.77063,-0.66902 14.74107,2.26785 3.60814,4.94449 8.6902,23.50657 -2.26785,33.26191 -2.53906,3.34087 -19.50539,6.5789 -28.72619,-4.91369 -7.11299,-11.17531 -7.73792,-15.68012 -11.71727,-22.3006 -9.087164,-13.89802 -31.180726,-26.5605 -38.931542,-44.60119 0,0 -8.41899,-14.39253 0.668174,-34.30411 5.34539,-9.88898 15.931982,-10.57941 20.876468,-14.45482 4.944486,-3.34087 6.547428,-10.30426 13.229166,-17.3869 6.147204,-6.94901 35.215964,-14.41682 49.514884,-9.07143 z"
       id="path4726"
       inkscape:connector-curvature="0"
       sodipodi:nodetypes="ccccccccccccccccccccc" />
    <path
       style="fill:none;stroke:#000000;stroke-width:0.26458332px;stroke-linecap:butt;stroke-linejoin:miter;stroke-opacity:1"
       d="m 156.0854,130.22382 c -3.53857,4.01352 -3.38541,16.97161 0.53454,25.65787 1.73725,5.07812 15.76891,-4.00904 20.31249,-1.06908 3.74177,3.4745 3.60813,7.88445 -0.26728,9.35443 -4.94449,2.53906 -14.69982,-2.80633 -20.04521,1.87089 -2.93996,4.27631 -3.74177,22.85155 0.53454,25.92515 5.21176,4.00904 30.60236,-5.34539 37.15046,-0.80181 5.21176,4.40995 3.34087,10.0226 0,12.02712 -6.01356,2.53906 -34.87866,-3.60814 -39.28861,1.60362 -3.34087,6.94901 -3.60815,21.9161 0.26726,26.72695 2.93996,3.4745 13.49711,-1.60362 16.30344,1.06908 2.53906,2.27179 1.33636,6.28084 -0.8018,7.48355 -1.73725,1.33635 -11.22278,-1.78053 -14.43256,2.93996 -3.87541,8.15172 -6.81537,19.51068 2.40543,32.07235 6.1472,6.81537 24.9897,0.53453 28.59784,-2.6727 6.1472,-3.20723 10.01261,-21.51735 14.43256,-29.78874 5.47903,-9.2208 18.72853,-13.61568 32.77917,-29.72851 11.22697,-18.2542 11.43886,-29.29682 7.2274,-40.49527 -4.28442,-9.17917 -11.14146,-13.97793 -18.35774,-18.92242 -8.28536,-7.48355 -8.95355,-15.90253 -16.03619,-19.77794 -7.61718,-4.94449 -43.29765,-12.29439 -51.31574,-3.4745 z"
       id="path4728"
       inkscape:connector-curvature="0"
       sodipodi:nodetypes="ccccccccccccccccccccc" />
    <path
       style="fill:none;stroke:#000000;stroke-width:0.26458332px;stroke-linecap:butt;stroke-linejoin:miter;stroke-opacity:1"
       d="m 140.41815,137.87203 c 4.34673,2.17336 1.79539,9.16591 -0.75595,10.77231 -2.17336,2.17336 -16.72545,-1.88987 -20.78869,1.7009 -4.25223,5.66964 -5.85862,19.56027 -1.13392,24.56845 5.19717,4.8192 18.8988,-1.79539 23.24553,1.13393 2.45685,3.40179 1.79538,7.65401 -1.32292,9.4494 -3.68527,1.6064 -34.01786,-3.49628 -37.9866,1.6064 -8.372228,12.68262 -4.819196,28.15923 0,30.71057 6.04762,2.92932 34.77381,-5.76415 37.98661,-2.83483 3.02381,3.68527 2.55133,7.93751 -0.37799,10.20537 -3.2128,2.55134 -15.68601,-1.51191 -18.70982,3.40178 -2.83482,5.57515 -3.77976,14.17411 -0.94494,20.03274 3.1183,3.96875 17.29242,-1.13394 20.41072,3.0238 2.64583,4.91369 -0.75595,13.89063 -3.96875,16.06399 -6.52009,3.77976 -12.85119,1.5119 -15.875,-2.07887 -5.29167,-7.37054 -8.032,-19.65475 -12.18974,-27.68675 -4.15774,-8.97693 -28.537196,-22.58408 -33.734369,-36.75819 -1.984375,-8.31548 -3.284521,-15.42333 -1.700892,-22.67856 1.795387,-6.3311 14.552081,-10.01637 20.505206,-14.07962 9.165925,-8.40997 7.654015,-14.07961 12.567705,-19.74925 6.14211,-6.89807 29.10417,-8.69345 34.77381,-6.80357 z"
       id="path4730"
       inkscape:connector-curvature="0"
       sodipodi:nodetypes="ccccccccccccccccccccc" />
    <path
       style="fill:none;stroke:#000000;stroke-width:0.26458332px;stroke-linecap:butt;stroke-linejoin:miter;stroke-opacity:1"
       d="m 163.66369,135.0372 c -2.74033,3.77976 -1.22843,9.92188 0.75595,11.1503 1.70089,2.17336 12.18974,-4.44122 17.19792,-2.26786 9.26042,5.29167 7.65401,23.8125 3.40178,27.21429 -4.91369,3.68527 -18.33184,-0.94494 -20.5052,4.44122 -0.56697,1.88988 -1.32292,4.53571 -0.28349,7.27604 2.07887,3.59077 31.18304,-5.38616 37.04167,-1.13393 5.95313,7.55952 5.98127,28.12169 0,31.27753 -10.30542,3.94941 -30.52158,-2.07887 -35.15179,2.36235 -1.79539,2.36235 -1.4174,4.06325 -0.18898,5.10268 1.70089,1.70089 10.39435,-0.94494 11.90625,1.88988 7.46503,11.52827 5.76414,21.73364 0.94494,26.26935 -5.38616,2.55134 -12.47322,0.0945 -14.3631,2.07887 -2.83482,3.49628 -1.5119,12.75669 0.56697,15.11904 2.45685,2.92932 14.37152,-1.33134 16.44196,-3.40178 6.70908,-5.85863 8.39331,-22.74808 11.90625,-28.15923 6.92779,-9.08616 23.90699,-15.875 30.80506,-24.56845 11.71726,-15.11905 7.46503,-30.52158 4.7247,-36.66369 -2.11485,-5.03583 -12.09524,-6.3311 -19.84375,-14.74107 -3.49628,-5.85863 -4.06325,-11.1503 -8.31548,-13.79613 -16.81994,-9.73289 -34.39583,-12.56771 -37.04166,-9.44941 z"
       id="path4732"
       inkscape:connector-curvature="0"
       sodipodi:nodetypes="ccccccccccccccccccccc" />
    <path
       style="opacity:1;fill:#4c4c4c;fill-opacity:1;stroke-width:1.01015258"
       d="m 479.43995,686.70719 c -19.94166,-3.80689 -38.20453,-13.91553 -48.37843,-26.77784 -5.88433,-7.43924 -19.53611,-31.85921 -28.30756,-50.6359 -11.66886,-24.97902 -14.78095,-30.9744 -20.20472,-38.92404 -10.48826,-15.37267 -25.70222,-31.21561 -65.58381,-68.29526 -44.72247,-41.58044 -63.07147,-63.73145 -77.30608,-93.3243 -11.08028,-23.0352 -14.46847,-37.54692 -14.48695,-62.048 -0.0165,-21.89243 2.55531,-36.32636 10.16926,-57.07362 6.68334,-18.21143 16.11194,-30.45166 31.1794,-40.4772 4.78317,-3.18262 16.37848,-9.0863 26.65421,-13.57083 10.0034,-4.36569 20.6777,-9.59018 23.72065,-11.60998 7.85389,-5.21311 15.40115,-13.77706 22.81694,-25.8906 12.75843,-20.84064 20.73379,-31.79176 29.7522,-40.85336 8.19455,-8.23379 10.29812,-9.73516 20.73643,-14.80008 48.6943,-23.62764 120.90541,-33.29146 160.42191,-21.46884 9.87895,2.9556 16.97673,11.57793 19.95537,24.24161 2.69944,11.47668 1.55718,34.8975 -2.45928,50.42486 -5.28698,20.43915 -11.26125,30.46791 -20.83928,34.98207 -5.8762,2.76948 -21.14663,2.58105 -39.76362,-0.49066 -21.23185,-3.50314 -25.4064,-3.85306 -31.0032,-2.59879 -14.73963,3.30322 -18.63295,22.24409 -7.11956,34.63636 6.94591,7.47614 18.62115,7.79264 44.71301,1.21215 19.23277,-4.8506 28.50477,-5.70655 33.55064,-3.09723 3.51011,1.81515 7.11099,7.21953 10.54294,15.82338 7.538,18.89762 7.65193,55.61061 0.23871,76.9273 -5.33217,15.33267 -9.63138,17.36521 -36.41273,17.21489 -9.44493,-0.053 -28.93945,-1.05087 -43.32115,-2.21746 -42.70583,-3.46413 -53.14661,-2.83498 -60.30708,3.63407 -12.78475,11.55025 -12.65447,33.10632 0.26693,44.16656 5.60892,4.80104 11.74145,6.7553 23.05417,7.34671 11.70076,0.61171 21.99731,-0.95813 51.0127,-7.77752 27.20648,-6.39424 38.60252,-7.90263 46.4451,-6.14754 10.66726,2.38723 16.61396,10.65643 20.4073,28.37747 2.57799,12.04336 2.60483,45.4092 0.046,57.07362 -2.36857,10.79684 -6.35175,18.63122 -10.74805,21.13997 -5.25382,2.99811 -17.39406,3.29358 -30.93736,0.75295 -22.17579,-4.16003 -26.51618,-3.83427 -32.42778,2.43385 -3.82994,4.06093 -4.90289,8.04275 -3.51835,13.05711 1.258,4.5561 6.85023,12.06173 10.22816,13.72775 1.68833,0.83271 8.71948,1.29477 21.2132,1.39407 28.81848,0.22904 31.45473,1.51213 38.45632,18.71707 5.99064,14.72072 9.01753,30.87587 9.01947,48.13891 0.003,24.84121 -6.13778,42.61468 -20.04754,58.02626 -6.52981,7.23483 -11.37884,10.192 -21.36734,13.03082 -9.77491,2.77813 -29.71576,3.57417 -40.06106,1.59924 z m 23.20155,-35.43523 c 8.12202,-2.44752 14.70678,-6.62911 18.43366,-11.70612 13.2856,-18.09863 16.78064,-49.20389 6.50056,-57.854 -4.99461,-4.20268 -11.67051,-4.936 -38.70733,-4.25184 -21.81812,0.5521 -24.95896,0.42683 -29.47145,-1.1754 -4.30021,-1.52686 -5.39183,-2.48023 -7.34597,-6.41562 -5.65441,-11.38728 -6.77846,-35.84739 -2.41037,-52.45135 7.00671,-26.63382 10.52235,-28.90748 44.10152,-28.52162 25.99773,0.29873 29.78615,-0.42043 36.01763,-6.83723 7.85374,-8.0873 8.90734,-18.69563 3.00947,-30.30107 -5.99337,-11.79331 -10.59857,-11.85488 -75.96038,-1.01545 -47.25298,7.83631 -65.04592,8.93545 -72.65617,4.48823 -6.52336,-3.81207 -12.58176,-15.31505 -15.9278,-30.24182 -2.37484,-10.59423 -2.10719,-32.85238 0.5352,-44.50672 3.92745,-17.32218 13.29975,-37.49198 19.3096,-41.55554 1.8055,-1.22078 6.77395,-3.03752 11.04102,-4.03721 10.06488,-2.35799 47.57018,-2.33631 82.5096,0.0477 28.18264,1.92297 41.65835,2.09598 45.64365,0.58599 10.66927,-4.04248 15.35267,-19.85044 9.40727,-31.75252 -4.72966,-9.46831 -12.17135,-10.51769 -42.92909,-6.05359 -34.15625,4.95735 -45.84678,2.57069 -52.59003,-10.73649 -3.95192,-7.79873 -5.67848,-17.19196 -5.64056,-30.68709 0.0719,-25.58878 8.6994,-51.50092 18.83464,-56.56854 3.83144,-1.91572 5.75827,-2.00611 37.22128,-1.74605 31.94047,0.264 33.3059,0.19686 36.53113,-1.79645 4.43514,-2.74106 9.11539,-10.21264 11.05007,-17.64039 2.61844,-10.05287 1.62719,-15.71423 -3.75161,-21.42672 -4.63961,-4.92742 -10.19742,-5.89609 -33.06862,-5.76355 -42.05655,0.24372 -82.75039,10.25872 -100.23056,24.66736 -5.34482,4.40565 -12.01485,15.02069 -17.43463,27.74642 -9.80229,23.01588 -17.01323,34.24829 -29.62335,46.14404 -6.04814,5.70551 -9.90027,8.04565 -29.58506,17.97272 -40.95913,20.65573 -49.73766,28.09746 -52.94997,44.88669 -3.12506,16.33321 -1.70319,39.36144 4.15345,67.26817 3.35494,15.9862 5.855,22.12736 13.93151,34.22145 12.34876,18.49153 28.07218,34.24243 71.69209,71.81735 20.65999,17.79686 35.28281,32.0017 39.99731,38.85398 5.38052,7.82031 12.4532,23.84402 22.76765,51.58189 12.02949,32.34997 22.69686,54.66037 29.90703,62.54945 5.56757,6.09181 15.98741,11.99774 24.14102,13.68302 5.67937,1.17389 17.14465,0.45712 23.54659,-1.47206 z"
       id="path4759"
       inkscape:connector-curvature="0"
       transform="matrix(0.26458333,0,0,0.26458333,0,97)" />
    <path
       style="opacity:1;fill:#4c4c4c;fill-opacity:1;stroke-width:1.01015258"
       d="m 625.28991,682.94496 c -14.9686,-1.48908 -23.22206,-7.11197 -31.91363,-21.74205 -16.7985,-28.27607 -19.62759,-58.19801 -8.62726,-91.24647 5.45215,-16.37997 7.83452,-20.13716 15.05912,-23.74947 5.977,-2.98849 6.33608,-3.03744 25.93372,-3.53553 19.46621,-0.49474 19.92878,-0.55675 22.60915,-3.03046 9.22176,-8.51077 8.13037,-24.80037 -1.96888,-29.3868 -5.34149,-2.42575 -7.831,-2.40413 -27.88617,0.24222 -20.63372,2.72269 -25.08372,2.27823 -30.39807,-3.03612 -8.74078,-8.74078 -12.96829,-36.50292 -9.89899,-65.00686 1.28717,-11.95368 5.05562,-27.83416 7.70512,-32.46984 5.70881,-9.98837 28.36526,-11.77898 90.67571,-7.16637 12.47034,0.92313 29.53813,1.49439 38.89088,1.30169 15.53234,-0.32005 16.93385,-0.509 20.5781,-2.77439 8.25568,-5.132 13.11627,-17.63483 10.82902,-27.85535 -1.70421,-7.61524 -8.80921,-17.19703 -14.67617,-19.79226 -11.97887,-5.29883 -26.09664,-4.77469 -74.30965,2.7588 -23.5984,3.68735 -32.63729,4.68096 -43.43656,4.77483 -12.01303,0.10442 -14.11825,-0.13299 -17.67767,-1.99349 -9.4281,-4.92806 -13.14906,-20.7741 -12.31305,-52.43622 0.54106,-20.49122 2.24534,-31.87025 6.15265,-41.07954 4.36403,-10.28574 18.31414,-12.97218 48.58681,-9.35657 14.61122,1.74509 21.78338,1.2988 29.04924,-1.80762 12.99925,-5.55762 15.31802,-18.0665 5.81025,-31.34397 -4.99321,-6.97293 -8.43809,-8.35824 -18.61309,-7.48499 -3.93526,0.33775 -15.33726,2.91117 -25.33777,5.71873 -29.69943,8.33786 -33.75723,8.10842 -38.36971,-2.16955 -4.07236,-9.07444 -8.32872,-27.31097 -9.71766,-41.63571 -2.17518,-22.43365 1.65855,-43.8809 9.24243,-51.70548 4.65931,-4.80718 13.48572,-9.18054 23.80883,-11.79692 8.14144,-2.06344 11.36808,-2.27583 34.73408,-2.28629 28.50795,-0.0128 38.81538,1.04791 69.19545,7.1205 26.89533,5.37603 50.56111,12.74568 62.12438,19.34588 13.10663,7.48113 18.09985,13.07206 32.29351,36.15923 16.28864,26.49482 24.32831,35.57469 43.35107,48.95999 22.93685,16.13943 37.55957,30.60869 48.46491,47.95629 6.32995,10.06934 9.25769,16.93943 12.69929,29.79959 10.22442,38.20534 2.88932,74.12288 -25.4826,124.77978 -6.26292,11.18219 -7.95966,13.2876 -22.43275,27.83575 -18.27532,18.37008 -27.34325,26.04486 -59.6996,50.52764 -45.42651,34.37247 -46.80181,36.24066 -66.51709,90.35674 -11.43309,31.38244 -21.04092,52.21845 -27.42108,59.4667 -7.90648,8.98224 -20.00438,15.8127 -38.41283,21.68785 -19.33,6.16926 -37.4569,8.61083 -52.68344,7.09611 z m 22.75262,-41.70358 c 17.45194,-3.33911 34.08561,-10.76471 41.23419,-18.40776 10.90968,-11.66431 16.73918,-25.39592 30.60061,-72.08096 3.05177,-10.2783 6.66512,-21.19503 8.02966,-24.25941 5.98776,-13.44679 19.77678,-25.6694 57.26414,-50.75906 50.17553,-33.58164 60.2798,-42.65138 74.53969,-66.90796 18.59342,-31.62807 22.62572,-72.98986 10.6806,-109.55752 -6.12273,-18.74354 -9.27528,-22.14501 -31.96916,-34.49325 -19.42028,-10.56699 -31.90399,-18.98481 -40.89819,-27.57783 -6.79343,-6.4904 -8.55994,-8.92629 -12.3065,-16.96975 -13.99378,-30.04325 -14.87587,-31.62219 -20.5764,-36.83215 -10.24724,-9.3654 -49.15084,-27.44377 -77.46363,-35.99708 -20.90721,-6.31607 -32.14978,-8.23132 -48.47853,-8.25864 -11.99003,-0.0201 -15.22401,0.29118 -17.82675,1.7157 -10.14392,5.55191 -11.5588,33.10403 -2.24474,43.71215 2.74591,3.12742 3.67591,3.54004 7.97892,3.54004 2.7913,0 10.40146,-1.69164 17.82556,-3.9624 19.74986,-6.04073 24.76572,-7.14928 32.34831,-7.14928 5.9476,0 7.65521,0.42818 11.54474,2.89485 13.92233,8.82928 22.49743,30.08923 22.46394,55.694 -0.0245,18.69973 -3.78148,33.91772 -10.23491,41.4571 -5.36677,6.26987 -9.7152,7.17702 -38.62156,8.05717 -27.07127,0.82425 -32.39374,1.77622 -37.54984,6.71609 -4.9387,4.73156 -7.86351,18.59519 -5.90915,28.00932 0.99787,4.80669 1.67285,5.94311 4.35324,7.32919 4.83265,2.49906 22.20252,1.28503 58.29865,-4.07464 49.25474,-7.31352 67.27733,-8.05617 76.74115,-3.16225 3.75245,1.94048 8.24871,9.89601 12.00994,21.25004 9.87731,29.81654 8.22325,74.64236 -3.33221,90.3049 -3.5809,4.85363 -6.07088,6.28153 -14.63231,8.39098 -11.95454,2.94548 -31.26714,3.31874 -66.88824,1.29275 -35.01593,-1.99156 -44.8024,-1.48109 -53.38955,2.78483 -8.83942,4.39126 -11.96854,15.68293 -6.15088,22.19589 l 2.94675,3.29894 19.02407,0.56366 c 10.46324,0.31002 19.81517,0.92517 20.78207,1.36702 3.95315,1.80647 14.0581,21.697 18.57136,36.55574 2.35778,7.76239 2.74272,10.85391 2.81752,22.62781 0.10322,16.24885 -1.91179,24.23948 -8.66132,34.34698 -6.53935,9.79277 -14.04312,12.06128 -40.02436,12.10002 -17.29478,0.0258 -19.53923,0.87562 -23.15152,8.7659 -4.68358,10.23029 -4.34921,30.141 0.7498,44.64861 1.06007,3.01609 2.73441,6.38992 3.72076,7.4974 4.30958,4.83883 12.42822,5.88825 25.78408,3.33286 z"
       id="path4761"
       inkscape:connector-curvature="0"
       transform="matrix(0.26458333,0,0,0.26458333,0,97)" />
  </g>
</svg>
